<svg xmlns="http://www.w3.org/2000/svg" version="1.1" xmlns:xlink="http://www.w3.org/1999/xlink" xmlns:svgjs="http://svgjs.dev/svgjs" width="1500" height="416" viewBox="0 0 1500 416"><g transform="matrix(1,0,0,1,-0.9090909090909918,-0.1325035052759631)"><svg viewBox="0 0 396 110" data-background-color="#ffffff" preserveAspectRatio="xMidYMid meet" height="416" width="1500" xmlns="http://www.w3.org/2000/svg" xmlns:xlink="http://www.w3.org/1999/xlink"><g id="tight-bounds" transform="matrix(1,0,0,1,0.2400000000000091,0.03503698456816551)"><svg viewBox="0 0 395.52 109.92992603086367" height="109.92992603086367" width="395.52"><g><svg viewBox="0 0 626.6746860415589 174.1765318617599" height="109.92992603086367" width="395.52"><g transform="matrix(1,0,0,1,229.17708604155902,44.190800181306436)"><svg viewBox="0 0 397.49759999999986 85.79493149914704" height="85.79493149914704" width="397.49759999999986"><g id="textblocktransform"><svg viewBox="0 0 397.49759999999986 85.79493149914704" height="85.79493149914704" width="397.49759999999986" id="textblock"><g><rect width="397.49759999999986" height="4.028364226211578" x="0" y="49.41520603902364" fill="#ffa458" opacity="1" stroke-width="0" stroke="transparent" fill-opacity="1" class="rect-qz-0" data-fill-palette-color="primary" rx="1%" id="qz-0" data-palette-color="#ffa458"></rect></g><g transform="matrix(1,0,0,1,0.9887999999999693,0)"><svg viewBox="0 0 395.5199999999999 44.66975079872204" height="44.66975079872204" width="395.5199999999999"><g transform="matrix(1,0,0,1,0,0)"><svg width="395.5199999999999" viewBox="1.8 -35.05 312.96999999999997 35.349999999999994" height="44.66975079872204" data-palette-color="#ffa458"><path d="M35.05-35L35.05 0 27.8 0 27.8-21.7 21.55-8.2 15.25-8.2 9-21.65 9 0 1.8 0 1.8-35 9.5-35 18.45-16.25 27.8-35 35.05-35ZM46.9-35L46.9 0 39.65 0 39.65-35 46.9-35ZM61.1-15.2L61.1-15.2 60.5-15.2 60.5-0.05 53.25-0.05 53.25-35.05 64.35-35.05Q70-35.05 72.8-32.58 75.6-30.1 75.6-25.5L75.6-25.5Q75.6-22.7 73.65-20.38 71.7-18.05 68.9-17.7L68.9-17.7Q70.9-17.15 72-15.88 73.1-14.6 74.3-11.75L74.3-11.75 79.25-0.05 71.8-0.05 66.95-11.25Q65.9-13.65 64.72-14.43 63.55-15.2 61.1-15.2ZM64.15-29.35L64.15-29.35 60.5-29.35 60.5-20.9 63.65-20.9Q65.65-20.9 66.77-22.2 67.9-23.5 67.9-25.4L67.9-25.4Q67.9-29.35 64.15-29.35ZM104.24-5.75L104.24 0 83.39 0 83.39-35 104.24-35 104.24-29.25 90.64-29.25 90.64-21.9 102.99-21.9 102.99-16.05 90.64-16.05 90.64-5.75 104.24-5.75ZM137.34-35L137.34 0.05 129.74 0.05 117.89-21.5 117.89 0 110.49 0 110.49-35 117.89-35 130.09-12.4 130.09-35 137.34-35ZM163.99-16.6L163.99-16.6 163.99 0 157.44 0 157.44-25 162.64-25 163.24-22.55Q165.24-24.15 166.59-24.83 167.94-25.5 168.96-25.5 169.99-25.5 170.34-25.48 170.69-25.45 170.94-25.4 171.19-25.35 171.79-25.2L171.79-25.2 171.19-19.25Q170.29-19.55 168.74-19.55L168.74-19.55Q166.64-19.55 163.99-16.6ZM194.08-6L195.18-1.55Q190.43 0.3 186.38 0.3L186.38 0.3Q174.63 0.3 174.63-12.4L174.63-12.4Q174.63-18.85 177.48-22.18 180.33-25.5 185.78-25.5L185.78-25.5Q190.28-25.5 192.98-22.7 195.68-19.9 195.68-14.4L195.68-14.4Q195.68-12.2 195.48-10.55L195.48-10.55 181.03-10.55Q181.03-7.6 182.63-6.2 184.23-4.8 186.93-4.8 189.63-4.8 194.08-6L194.08-6ZM180.98-15.15L189.43-15.15 189.43-15.5Q189.43-17.8 188.43-19.2 187.43-20.6 185.28-20.6 183.13-20.6 182.08-19.05 181.03-17.5 180.98-15.15L180.98-15.15ZM214.23-25L220.88-25 212.93 0 205.63 0 197.73-25 204.48-25 209.33-6.5 214.23-25ZM231.28-35L231.28-28.75 224.78-28.75 224.78-35 231.28-35ZM231.28-25L231.28 0 224.78 0 224.78-25 231.28-25ZM256.28-6L257.38-1.55Q252.63 0.3 248.58 0.3L248.58 0.3Q236.83 0.3 236.83-12.4L236.83-12.4Q236.83-18.85 239.68-22.18 242.53-25.5 247.98-25.5L247.98-25.5Q252.48-25.5 255.18-22.7 257.88-19.9 257.88-14.4L257.88-14.4Q257.88-12.2 257.68-10.55L257.68-10.55 243.23-10.55Q243.23-7.6 244.83-6.2 246.43-4.8 249.13-4.8 251.83-4.8 256.28-6L256.28-6ZM243.18-15.15L251.63-15.15 251.63-15.5Q251.63-17.8 250.63-19.2 249.63-20.6 247.48-20.6 245.33-20.6 244.28-19.05 243.23-17.5 243.18-15.15L243.18-15.15ZM273.27 0L266.22 0 259.92-25 266.32-25 269.87-6.45 274.02-25 280.22-25 284.42-6.25 287.87-25 294.27-25 288.07 0 280.92 0 277.12-16.75 273.27 0ZM296.52-1.85L297.92-6.65Q301.27-4.95 304.8-4.95 308.32-4.95 308.32-7.55L308.32-7.55Q308.32-9.95 304.32-11.1L304.32-11.1Q302.62-11.55 300.95-12.18 299.27-12.8 298.1-14.23 296.92-15.65 296.92-17.9L296.92-17.9Q296.92-21.55 299.17-23.53 301.42-25.5 305.45-25.5 309.47-25.5 313.07-24.1L313.07-24.1 312.02-18.9Q308.72-20.25 305.57-20.25L305.57-20.25Q303.37-20.25 303.37-18.75L303.37-18.75Q303.37-17.2 306.32-16.4L306.32-16.4Q309.42-15.6 311.82-14.1L311.82-14.1Q313.07-13.35 313.92-11.85 314.77-10.35 314.77-8.25L314.77-8.25Q314.77-4.3 312.12-2 309.47 0.3 304.82 0.3 300.17 0.3 296.52-1.85L296.52-1.85Z" opacity="1" transform="matrix(1,0,0,1,0,0)" fill="#ffa458" class="wordmark-text-0" data-fill-palette-color="primary" id="text-0"></path></svg></g></svg></g><g transform="matrix(1,0,0,1,0,58.18902550553681)"><svg viewBox="0 0 212.4961462499015 27.60590599361022" height="27.60590599361022" width="212.4961462499015"><g transform="matrix(1,0,0,1,0,0)"><svg width="212.4961462499015" viewBox="0.45 -37.5 337.11 43.8" height="27.60590599361022" data-palette-color="#ba3b0a"><path d="M25.55-31.5L25.55-31.5Q24.2-31.5 22.58-31.73 20.95-31.95 18.55-32.45L18.55-32.45 16.45-22.5 23.75-22.5 22.95-18.8 15.65-18.8 11.6 0 4.4 0 11.6-33.4Q8.15-33.25 6.63-30.75 5.1-28.25 5.1-23.05L5.1-23.05Q5.1-22.1 5.23-21.4 5.35-20.7 5.65-20.05L5.65-20.05Q5.75-19.85 5.78-19.78 5.8-19.7 5.8-19.65L5.8-19.65Q3-19.65 1.73-20.83 0.45-22 0.45-24.5L0.45-24.5Q0.45-30.45 4.93-33.98 9.4-37.5 17.5-37.5L17.5-37.5Q17.95-37.5 18.6-37.45 19.25-37.4 20.75-37.25L20.75-37.25Q22.75-37.05 23.83-36.98 24.9-36.9 25.8-36.9L25.8-36.9Q27.15-36.9 28.25-37.05 29.35-37.2 30.3-37.5L30.3-37.5Q30.25-37.4 29.85-35.95 29.45-34.5 28.9-33.65L28.9-33.65Q28.35-32.8 27.53-32.27 26.7-31.75 25.55-31.5ZM35.3-31.65L35.3-31.65Q35.3-30 34.12-28.85 32.95-27.7 31.3-27.7L31.3-27.7Q29.65-27.7 28.5-28.85 27.35-30 27.35-31.65L27.35-31.65Q27.35-33.3 28.5-34.48 29.65-35.65 31.3-35.65L31.3-35.65Q32.95-35.65 34.12-34.48 35.3-33.3 35.3-31.65ZM22.55-5.7L22.55-5.7Q22.55-6.35 22.65-7.18 22.75-8 22.95-8.95L22.95-8.95 26.35-25 33.55-25 29.95-8Q29.85-7.55 29.8-7.18 29.75-6.8 29.75-6.4L29.75-6.4Q29.75-5.4 30.22-4.98 30.7-4.55 31.8-4.55L31.8-4.55Q33.2-4.55 34.45-5.78 35.7-7 36.3-8.95L36.3-8.95 38.4-8.95Q36.8-4.4 34.1-2.05 31.4 0.3 27.9 0.3L27.9 0.3Q25.4 0.3 23.97-1.28 22.55-2.85 22.55-5.7ZM48.05-5.35L48.05-5.35Q48.05-6.25 48.27-7.6 48.5-8.95 49.2-11.9L49.2-11.9Q49.9-14.75 50.1-16 50.3-17.25 50.3-18.1L50.3-18.1Q50.3-19.35 49.85-20 49.4-20.65 48.5-20.65L48.5-20.65Q47.3-20.65 46.27-19.43 45.25-18.2 44.6-16.05L44.6-16.05 41.2 0 34 0 39.3-25 46.5-25 45.95-22.4Q47.2-23.8 48.65-24.5 50.1-25.2 51.8-25.2L51.8-25.2Q54.45-25.2 55.9-23.75 57.35-22.3 57.35-19.55L57.35-19.55Q57.35-18.4 57.07-16.82 56.8-15.25 56-12L56-12Q55.35-9.45 55.15-8.4 54.95-7.35 54.95-6.65L54.95-6.65Q54.95-5.6 55.45-5.08 55.95-4.55 56.95-4.55L56.95-4.55Q58.2-4.55 59.1-5.4 60-6.25 61.15-8.95L61.15-8.95 63.25-8.95Q61.65-4.3 59.37-2 57.1 0.3 53.95 0.3L53.95 0.3Q51.15 0.3 49.6-1.23 48.05-2.75 48.05-5.35ZM67.99-8.45L67.99-8.45Q67.99-6.5 68.54-5.53 69.09-4.55 70.49-4.55L70.49-4.55Q71.74-4.55 72.94-5.73 74.14-6.9 74.59-8.7L74.59-8.7 74.59-8.95 77.04-20.4Q76.89-21.2 76.37-21.68 75.84-22.15 74.99-22.15L74.99-22.15Q72.24-22.15 70.12-17.55 67.99-12.95 67.99-8.45ZM77.49-22.7L77.49-22.7 77.49-22.5 79.94-34 87.34-35 81.59-8Q81.49-7.55 81.44-7.18 81.39-6.8 81.39-6.4L81.39-6.4Q81.39-5.4 81.87-4.98 82.34-4.55 83.44-4.55L83.44-4.55Q84.74-4.55 85.79-5.7 86.84-6.85 87.49-8.95L87.49-8.95 89.59-8.95Q88.04-4.5 85.57-2.25 83.09 0 79.54 0L79.54 0Q77.49 0 76.22-1.13 74.94-2.25 74.64-4.3L74.64-4.3Q73.14-2 71.29-0.85 69.44 0.3 67.24 0.3L67.24 0.3Q64.14 0.3 62.37-1.8 60.59-3.9 60.59-7.75L60.59-7.75Q60.59-10.55 61.44-13.6 62.29-16.65 63.79-19.15L63.79-19.15Q65.64-22.1 68.09-23.68 70.54-25.25 73.44-25.25L73.44-25.25Q75.39-25.25 76.44-24.58 77.49-23.9 77.49-22.7ZM93.69 0.9L93.69 0.9Q93.69 0.6 93.52 0.35 93.34 0.1 93.04-0.1L93.04-0.1Q91.84-0.9 91.27-1.8 90.69-2.7 90.69-3.75L90.69-3.75Q90.69-5.4 91.84-6.58 92.99-7.75 94.64-7.75L94.64-7.75Q96.19-7.75 97.12-6.73 98.04-5.7 98.04-3.95L98.04-3.95Q98.04-1.5 96.22 1.4 94.39 4.3 91.54 6.3L91.54 6.3Q91.29 6.15 91.19 5.93 91.09 5.7 91.09 5.45L91.09 5.45Q91.09 5 91.34 4.53 91.59 4.05 92.39 3.2L92.39 3.2Q93.19 2.35 93.44 1.88 93.69 1.4 93.69 0.9ZM127.04-18.85L123.04 0 115.84 0 122.64-31.8 130.04-32.8 127.59-21.25 127.99-21.25Q130.84-21.25 132.96-24 135.09-26.75 135.09-29.95L135.09-29.95Q135.09-32.4 133.64-33.8 132.19-35.2 129.59-35.2L129.59-35.2Q123.39-35.2 119.74-31.93 116.09-28.65 116.09-23.05L116.09-23.05Q116.09-22.1 116.21-21.4 116.34-20.7 116.64-20.05L116.64-20.05Q116.74-19.85 116.76-19.78 116.79-19.7 116.79-19.65L116.79-19.65Q113.99-19.65 112.71-20.83 111.44-22 111.44-24.5L111.44-24.5Q111.44-27 113.11-29.5 114.79-32 117.79-34L117.79-34Q120.34-35.65 123.26-36.58 126.19-37.5 128.99-37.5L128.99-37.5Q134.24-37.5 137.29-35.3 140.34-33.1 140.34-29.5L140.34-29.5Q140.34-27.1 138.86-24.75 137.39-22.4 134.94-20.95L134.94-20.95Q136.69-20.45 137.54-19.23 138.39-18 138.39-15.95L138.39-15.95Q138.39-14.8 138.14-13.33 137.89-11.85 137.04-8.85L137.04-8.85Q136.34-6.3 136.14-5.2 135.94-4.1 135.94-3.3L135.94-3.3Q135.94-2.15 136.46-1.25 136.99-0.35 137.89 0L137.89 0Q136.44 0.4 135.16 0.63 133.89 0.85 132.94 0.85L132.94 0.85Q130.99 0.85 130.01 0.03 129.04-0.8 129.04-2.5L129.04-2.5Q129.04-3.35 129.29-4.58 129.54-5.8 130.29-8.65L130.29-8.65Q131.14-11.75 131.41-13.18 131.69-14.6 131.69-15.65L131.69-15.65Q131.69-17.35 130.94-18.2 130.19-19.05 128.69-19.05L128.69-19.05Q128.49-19.05 128.26-19.03 128.04-19 127.04-18.85L127.04-18.85ZM157.43-22.7L157.43-22.7 157.43-22.35 157.98-25 165.18-25 161.58-8Q161.48-7.55 161.43-7.18 161.38-6.8 161.38-6.4L161.38-6.4Q161.38-5.3 161.88-4.78 162.38-4.25 163.43-4.25L163.43-4.25Q164.73-4.25 165.78-5.48 166.83-6.7 167.48-8.95L167.48-8.95 169.58-8.95Q167.98-4.35 165.43-2.02 162.88 0.3 159.53 0.3L159.53 0.3Q157.38 0.3 156.11-0.9 154.83-2.1 154.63-4.3L154.63-4.3Q153.08-2 151.21-0.85 149.33 0.3 147.18 0.3L147.18 0.3Q144.08 0.3 142.31-1.8 140.53-3.9 140.53-7.75L140.53-7.75Q140.53-10.55 141.38-13.6 142.23-16.65 143.73-19.15L143.73-19.15Q145.58-22.1 148.03-23.68 150.48-25.25 153.38-25.25L153.38-25.25Q155.33-25.25 156.38-24.58 157.43-23.9 157.43-22.7ZM154.58-8.95L156.98-20.25Q156.98-21 156.43-21.58 155.88-22.15 154.93-22.15L154.93-22.15Q152.18-22.15 150.06-17.55 147.93-12.95 147.93-8.45L147.93-8.45Q147.93-6.5 148.48-5.53 149.03-4.55 150.43-4.55L150.43-4.55Q151.73-4.55 152.96-5.8 154.18-7.05 154.58-8.95L154.58-8.95ZM168.88-23L169.28-25 170.93-25 172.43-31.9 179.83-32.9 178.13-25 181.13-25 180.73-23 177.73-23 174.53-8Q174.43-7.55 174.38-7.18 174.33-6.8 174.33-6.4L174.33-6.4Q174.33-5.4 174.81-4.98 175.28-4.55 176.38-4.55L176.38-4.55Q177.78-4.55 179.03-5.78 180.28-7 180.88-8.95L180.88-8.95 182.98-8.95Q181.38-4.4 178.68-2.05 175.98 0.3 172.48 0.3L172.48 0.3Q169.98 0.3 168.56-1.28 167.13-2.85 167.13-5.7L167.13-5.7Q167.13-6.35 167.23-7.18 167.33-8 167.53-8.95L167.53-8.95 170.53-23 168.88-23ZM198.98-20.65L198.98-20.65Q198.98-16.5 195.58-13.43 192.18-10.35 187.48-10.1L187.48-10.1Q187.43-9.25 187.4-8.83 187.38-8.4 187.38-8.1L187.38-8.1Q187.38-5.8 188.15-4.85 188.93-3.9 190.98-3.9L190.98-3.9Q193.33-3.9 195.3-4.98 197.28-6.05 199.83-8.95L199.83-8.95 201.53-8.95Q198.63-4.25 195.23-1.98 191.83 0.3 187.78 0.3L187.78 0.3Q183.93 0.3 181.95-1.7 179.98-3.7 179.98-7.65L179.98-7.65Q179.98-10.5 180.88-13.7 181.78-16.9 183.28-19.4L183.28-19.4Q185.13-22.4 187.7-23.93 190.28-25.45 193.48-25.45L193.48-25.45Q196.23-25.45 197.6-24.28 198.98-23.1 198.98-20.65ZM193.88-22.8L193.88-22.8Q192.18-22.8 190.45-19.78 188.73-16.75 187.88-12.5L187.88-12.5Q190.78-12.7 192.95-15.18 195.13-17.65 195.13-20.75L195.13-20.75Q195.13-21.8 194.83-22.3 194.53-22.8 193.88-22.8ZM204.33 0.9L204.33 0.9Q204.33 0.6 204.15 0.35 203.98 0.1 203.68-0.1L203.68-0.1Q202.48-0.9 201.9-1.8 201.33-2.7 201.33-3.75L201.33-3.75Q201.33-5.4 202.48-6.58 203.63-7.75 205.28-7.75L205.28-7.75Q206.83-7.75 207.75-6.73 208.68-5.7 208.68-3.95L208.68-3.95Q208.68-1.5 206.85 1.4 205.03 4.3 202.18 6.3L202.18 6.3Q201.93 6.15 201.83 5.93 201.73 5.7 201.73 5.45L201.73 5.45Q201.73 5 201.98 4.53 202.23 4.05 203.03 3.2L203.03 3.2Q203.83 2.35 204.08 1.88 204.33 1.4 204.33 0.9ZM237.67-18.85L233.67 0 226.47 0 233.27-31.8 240.67-32.8 238.22-21.25 238.62-21.25Q241.47-21.25 243.6-24 245.72-26.75 245.72-29.95L245.72-29.95Q245.72-32.4 244.27-33.8 242.82-35.2 240.22-35.2L240.22-35.2Q234.02-35.2 230.37-31.93 226.72-28.65 226.72-23.05L226.72-23.05Q226.72-22.1 226.85-21.4 226.97-20.7 227.27-20.05L227.27-20.05Q227.37-19.85 227.4-19.78 227.42-19.7 227.42-19.65L227.42-19.65Q224.62-19.65 223.35-20.83 222.07-22 222.07-24.5L222.07-24.5Q222.07-27 223.75-29.5 225.42-32 228.42-34L228.42-34Q230.97-35.65 233.9-36.58 236.82-37.5 239.62-37.5L239.62-37.5Q244.87-37.5 247.92-35.3 250.97-33.1 250.97-29.5L250.97-29.5Q250.97-27.1 249.5-24.75 248.02-22.4 245.57-20.95L245.57-20.95Q247.32-20.45 248.17-19.23 249.02-18 249.02-15.95L249.02-15.95Q249.02-14.8 248.77-13.33 248.52-11.85 247.67-8.85L247.67-8.85Q246.97-6.3 246.77-5.2 246.57-4.1 246.57-3.3L246.57-3.3Q246.57-2.15 247.1-1.25 247.62-0.35 248.52 0L248.52 0Q247.07 0.4 245.8 0.63 244.52 0.85 243.57 0.85L243.57 0.85Q241.62 0.85 240.65 0.03 239.67-0.8 239.67-2.5L239.67-2.5Q239.67-3.35 239.92-4.58 240.17-5.8 240.92-8.65L240.92-8.65Q241.77-11.75 242.05-13.18 242.32-14.6 242.32-15.65L242.32-15.65Q242.32-17.35 241.57-18.2 240.82-19.05 239.32-19.05L239.32-19.05Q239.12-19.05 238.9-19.03 238.67-19 237.67-18.85L237.67-18.85ZM270.17-20.65L270.17-20.65Q270.17-16.5 266.77-13.43 263.37-10.35 258.67-10.1L258.67-10.1Q258.62-9.25 258.59-8.83 258.57-8.4 258.57-8.1L258.57-8.1Q258.57-5.8 259.34-4.85 260.12-3.9 262.17-3.9L262.17-3.9Q264.52-3.9 266.49-4.98 268.47-6.05 271.02-8.95L271.02-8.95 272.72-8.95Q269.82-4.25 266.42-1.98 263.02 0.3 258.97 0.3L258.97 0.3Q255.12 0.3 253.14-1.7 251.17-3.7 251.17-7.65L251.17-7.65Q251.17-10.5 252.07-13.7 252.97-16.9 254.47-19.4L254.47-19.4Q256.32-22.4 258.89-23.93 261.47-25.45 264.67-25.45L264.67-25.45Q267.42-25.45 268.79-24.28 270.17-23.1 270.17-20.65ZM265.07-22.8L265.07-22.8Q263.37-22.8 261.64-19.78 259.92-16.75 259.07-12.5L259.07-12.5Q261.97-12.7 264.14-15.18 266.32-17.65 266.32-20.75L266.32-20.75Q266.32-21.8 266.02-22.3 265.72-22.8 265.07-22.8ZM270.57-5.7L270.57-5.7Q270.57-6.35 270.67-7.18 270.77-8 270.97-8.95L270.97-8.95 276.32-34 283.72-35 277.97-8Q277.87-7.55 277.82-7.18 277.77-6.8 277.77-6.4L277.77-6.4Q277.77-5.4 278.24-4.98 278.72-4.55 279.82-4.55L279.82-4.55Q281.22-4.55 282.47-5.78 283.72-7 284.32-8.95L284.32-8.95 286.42-8.95Q284.82-4.4 282.12-2.05 279.42 0.3 275.92 0.3L275.92 0.3Q273.42 0.3 271.99-1.28 270.57-2.85 270.57-5.7ZM299.31-22.7L299.31-22.7 299.31-22.35 299.86-25 307.06-25 303.46-8Q303.36-7.55 303.31-7.18 303.26-6.8 303.26-6.4L303.26-6.4Q303.26-5.3 303.76-4.78 304.26-4.25 305.31-4.25L305.31-4.25Q306.61-4.25 307.66-5.48 308.71-6.7 309.36-8.95L309.36-8.95 311.46-8.95Q309.86-4.35 307.31-2.02 304.76 0.3 301.41 0.3L301.41 0.3Q299.26 0.3 297.99-0.9 296.71-2.1 296.51-4.3L296.51-4.3Q294.96-2 293.09-0.85 291.21 0.3 289.06 0.3L289.06 0.3Q285.96 0.3 284.19-1.8 282.41-3.9 282.41-7.75L282.41-7.75Q282.41-10.55 283.26-13.6 284.11-16.65 285.61-19.15L285.61-19.15Q287.46-22.1 289.91-23.68 292.36-25.25 295.26-25.25L295.26-25.25Q297.21-25.25 298.26-24.58 299.31-23.9 299.31-22.7ZM296.46-8.95L298.86-20.25Q298.86-21 298.31-21.58 297.76-22.15 296.81-22.15L296.81-22.15Q294.06-22.15 291.94-17.55 289.81-12.95 289.81-8.45L289.81-8.45Q289.81-6.5 290.36-5.53 290.91-4.55 292.31-4.55L292.31-4.55Q293.61-4.55 294.84-5.8 296.06-7.05 296.46-8.95L296.46-8.95ZM331.56-27.85L331.56-27.85Q332.81-27.85 333.59-26.53 334.36-25.2 334.36-23.3L334.36-23.3Q334.36-21.45 333.16-19.43 331.96-17.4 327.41-12.4L327.41-12.4 327.86-8.9Q328.16-6.6 328.86-5.58 329.56-4.55 330.96-4.55L330.96-4.55Q332.36-4.55 333.61-5.78 334.86-7 335.46-8.95L335.46-8.95 337.56-8.95Q336.01-4.45 333.36-2.08 330.71 0.3 327.36 0.3L327.36 0.3Q325.01 0.3 323.49-1.88 321.96-4.05 321.26-8.4L321.26-8.4 314.36 0 310.76 0 320.86-11.4 320.06-17Q319.71-19.3 319.31-20.23 318.91-21.15 318.16-21.15L318.16-21.15Q316.41-21.15 314.51-17.78 312.61-14.4 311.46-8.95L311.46-8.95 309.36-8.95Q310.96-16.65 314.04-20.95 317.11-25.25 321.16-25.25L321.16-25.25Q323.46-25.25 324.84-23.73 326.21-22.2 326.56-19.3L326.56-19.3 327.01-15.5Q329.26-18.05 330.29-19.73 331.31-21.4 331.36-22.7L331.36-22.7Q331.01-22.65 330.84-22.63 330.66-22.6 330.51-22.6L330.51-22.6Q329.36-22.6 328.76-23.33 328.16-24.05 328.16-25.4L328.16-25.4Q328.16-26.55 329.09-27.2 330.01-27.85 331.56-27.85Z" opacity="1" transform="matrix(1,0,0,1,0,0)" fill="#ba3b0a" class="slogan-text-1" data-fill-palette-color="secondary" id="text-1"></path></svg></g></svg></g></svg></g></svg></g><g><svg viewBox="0 0 218.6316299519999 174.1765318617599" height="174.1765318617599" width="218.6316299519999"><g><svg xmlns="http://www.w3.org/2000/svg" xmlns:xlink="http://www.w3.org/1999/xlink" version="1.1" x="0" y="0" viewBox="-250 361.2 90 71.69999999999999" style="enable-background:new -255 347 100 100;" xml:space="preserve" height="174.1765318617599" width="218.6316299519999" class="icon-icon-0" data-fill-palette-color="accent" id="icon-0"><path d="M-162 361.2H-248c-1.1 0-2 0.9-2 2v56.7c0 1.1 0.9 2 2 2h33.4v11l6.8-11h45.8c1.1 0 2-0.9 2-2v-56.7C-160 362.1-160.9 361.2-162 361.2zM-175.5 378.4l1.4-4.2 1.4 4.2h4.4l-3.6 2.6 1.4 4.2-3.6-2.6-3.6 2.6 1.4-4.2-3.6-2.6H-175.5zM-191 378.4l1.4-4.2 1.4 4.2h4.4l-3.6 2.6 1.4 4.2-3.6-2.6-3.6 2.6 1.4-4.2-3.6-2.6H-191zM-206.4 378.4l1.4-4.2 1.4 4.2h4.4l-3.6 2.6 1.4 4.2-3.6-2.6-3.6 2.6 1.4-4.2-3.6-2.6H-206.4zM-221.8 378.4l1.4-4.2 1.4 4.2h4.4l-3.6 2.6 1.4 4.2-3.6-2.6-3.6 2.6 1.4-4.2-3.6-2.6H-221.8zM-237.2 378.4l1.4-4.2 1.4 4.2h4.4l-3.6 2.6 1.4 4.2-3.6-2.6-3.6 2.6 1.4-4.2-3.6-2.6H-237.2zM-178.2 410.4h-61.3c-1.3 0-2.3-0.8-2.3-1.7 0-0.9 1-1.7 2.3-1.7h61.3c1.3 0 2.3 0.8 2.3 1.7C-175.8 409.7-176.9 410.4-178.2 410.4zM-169.2 400.3h-70c-1.5 0-2.7-0.8-2.7-1.7 0-1 1.2-1.7 2.7-1.7h70c1.5 0 2.7 0.8 2.7 1.7C-166.5 399.6-167.7 400.3-169.2 400.3z" fill="#ba3b0a" data-fill-palette-color="accent"></path></svg></g></svg></g></svg></g><defs></defs></svg><rect width="395.52" height="109.92992603086367" fill="none" stroke="none" visibility="hidden"></rect></g></svg></g></svg>